<?xml version="1.0" encoding="UTF-8"?>
<svg id="Layer_1" data-name="Layer 1" xmlns="http://www.w3.org/2000/svg" xmlns:xlink="http://www.w3.org/1999/xlink" viewBox="0 0 632.5 464.8">
  <defs>
    <style>
      .cls-1 {
        fill: #f1572b;
      }

      .cls-2 {
        clip-path: url(#clippath-20);
      }

      .cls-3 {
        clip-path: url(#clippath-11);
      }

      .cls-4 {
        clip-path: url(#clippath-16);
      }

      .cls-5 {
        fill: #fff;
      }

      .cls-6 {
        fill: #ef4634;
      }

      .cls-7 {
        fill: #f1592a;
      }

      .cls-8 {
        fill: #f15a29;
      }

      .cls-9 {
        clip-path: url(#clippath-2);
      }

      .cls-10 {
        clip-path: url(#clippath-13);
      }

      .cls-11 {
        clip-path: url(#clippath-15);
      }

      .cls-12 {
        clip-path: url(#clippath-6);
      }

      .cls-13 {
        fill: #f0542d;
      }

      .cls-14 {
        fill: #ef4335;
      }

      .cls-15 {
        clip-path: url(#clippath-7);
      }

      .cls-16 {
        fill: #f1582b;
      }

      .cls-17 {
        clip-path: url(#clippath-1);
      }

      .cls-18 {
        clip-path: url(#clippath-4);
      }

      .cls-19 {
        fill: #f1552c;
      }

      .cls-20 {
        fill: #f04932;
      }

      .cls-21 {
        clip-path: url(#clippath-12);
      }

      .cls-22 {
        fill: #f15929;
      }

      .cls-23 {
        fill: #f04b32;
      }

      .cls-24 {
        fill: #f04d31;
      }

      .cls-25 {
        fill: #f0522e;
      }

      .cls-26 {
        fill: #f0502f;
      }

      .cls-27 {
        fill: #f0532e;
      }

      .cls-28 {
        clip-path: url(#clippath-9);
      }

      .cls-29 {
        clip-path: url(#clippath);
      }

      .cls-30 {
        fill: #ef4534;
      }

      .cls-31 {
        fill: none;
      }

      .cls-32 {
        clip-path: url(#clippath-19);
      }

      .cls-33 {
        clip-path: url(#clippath-3);
      }

      .cls-34 {
        fill: #ef4733;
      }

      .cls-35 {
        fill: #f04e30;
      }

      .cls-36 {
        fill: #f1562c;
      }

      .cls-37 {
        fill: #f0512f;
      }

      .cls-38 {
        clip-path: url(#clippath-8);
      }

      .cls-39 {
        fill: #ef4136;
      }

      .cls-40 {
        clip-path: url(#clippath-18);
      }

      .cls-41 {
        clip-path: url(#clippath-14);
      }

      .cls-42 {
        clip-path: url(#clippath-17);
      }

      .cls-43 {
        clip-path: url(#clippath-5);
      }

      .cls-44 {
        fill: #f04c31;
      }

      .cls-45 {
        fill: #f04f30;
      }

      .cls-46 {
        clip-path: url(#clippath-10);
      }

      .cls-47 {
        fill: #f04833;
      }

      .cls-48 {
        fill: #ef4435;
      }

      .cls-49 {
        fill: #ef4236;
      }
    </style>
    <clipPath id="clippath">
      <path class="cls-31" d="m167.63,382.58v-60.1h-19.66v-8.61c7.13-.08,12.49-1.43,16.1-4.04s5.72-6.71,6.35-12.29h8.31v85.05h-11.11Z"/>
    </clipPath>
    <clipPath id="clippath-1">
      <path class="cls-31" d="m252.15,353.88c1.94,3.33,3.8,6.51,5.63,9.7.12.2.09.62-.05.81-4.03,5.75-8.66,10.94-14.98,14.23-10.2,5.32-20.75,5.59-31.17.98-12.02-5.31-19.24-14.73-21.49-27.69-3.37-19.41,10.24-38.48,29.64-41.68,14.5-2.39,26.2,2.57,35.42,13.82,3.8,4.65,6.85,9.78,9.79,15,3.38,5.99,6.72,12.01,10.28,17.88,2.48,4.09,5.55,7.75,9.43,10.63,9.73,7.2,23.88,6.08,32.75-2.82,7.44-7.47,9.76-16.55,6.51-26.57-3.27-10.05-10.47-16.08-20.94-17.73-9.44-1.48-17.33,1.76-23.54,8.94-2.02,2.33-3.71,4.94-5.55,7.43-.22.3-.42.62-.67,1-.2-.31-.35-.54-.49-.77-1.66-2.85-3.33-5.7-4.95-8.57-.16-.29-.23-.84-.06-1.07,4.11-5.75,8.92-10.76,15.3-14.02,6.41-3.28,13.27-4.41,20.35-3.49,12.96,1.69,22.66,8.39,28.51,20.06,10.59,21.11-1.35,46.55-24.51,51.76-13.76,3.1-25.54-.84-35.04-11.35-4.46-4.94-7.85-10.59-11.12-16.34-3.53-6.22-6.98-12.5-10.71-18.6-2.75-4.5-6.18-8.5-10.67-11.42-10.78-7-25.83-4.39-33.98,5.87-12.16,15.31-3.97,37.99,15.2,41.82,9.19,1.84,17.2-.72,23.54-7.66,2.52-2.75,4.55-5.95,6.8-8.95.26-.35.48-.74.78-1.21Z"/>
    </clipPath>
    <clipPath id="clippath-2">
      <path class="cls-31" d="m510.34,178.26c.46,18.76-2.49,24.94-13.51,26.16-.23,4.55-.68,9.29-.67,14.04.06,30.98-8.49,59.21-26.5,84.56-12.5,17.59-27.5,32.57-45.77,44.13-17.18,10.87-35.78,18.66-55.34,24.12-7.74,2.16-15.63,3.83-23.47,5.63-1.43.33-2.95.21-4.44.3-.13-.45-.27-.9-.4-1.36,1.82-.66,3.59-1.56,5.47-1.96,18.99-4.01,37.56-9.44,55.11-17.75,21.56-10.21,40.13-24.4,56.24-42.14,15.79-17.39,26.17-37.48,31.7-59.96,2.84-11.54,3.57-23.6,5.12-35.45,1.06-8.06,1.46-16.24,3.05-24.18.66-3.27,3.41-6.28,5.7-9,2.21-2.63,5.05-4.72,7.71-7.14Z"/>
    </clipPath>
    <clipPath id="clippath-3">
      <path class="cls-31" d="m422.11,305.03c-1,1.44-1.86,3-3.01,4.29-5.37,6.01-7.18,13.27-5.95,20.86,1.91,11.77-4.2,18.19-13.53,23.18-9.27,4.95-9.51,2.25-9.64-6.19-.1-6.89,3.27-12.45,7.45-17.52,2.14-2.6,4.73-4.82,7.15-7.18,5.88-5.72,11.78-11.43,17.68-17.14-.05-.1-.1-.2-.15-.3Z"/>
    </clipPath>
    <clipPath id="clippath-4">
      <path class="cls-31" d="m453.09,365.1c-9.72,2.63-19.33,5.81-29.19,7.71-8.47,1.63-16.89.24-24.15-5.19-3.01-2.25-2.97-3.33.25-5.05,1.37-.73,2.72-1.48,4.08-2.22,9.15-4.98,18.32-7.08,28-1.06,6.31,3.92,13.31,5.77,20.96,4.66.02.38.03.77.05,1.15Z"/>
    </clipPath>
    <clipPath id="clippath-5">
      <path class="cls-31" d="m435.27,297.89c1.06,7.64,2.67,14.92,2.83,22.23.08,3.85-1.6,8.29-3.87,11.49-2.26,3.19-6.16,5.26-9.5,7.61-2.78,1.96-4.35.59-5.22-2.32-2.32-7.78-1.39-15.27,2.95-21.95,3.94-6.06,8.67-11.61,12.81-17.07Z"/>
    </clipPath>
    <clipPath id="clippath-6">
      <path class="cls-31" d="m476.1,340.83c-11,8.44-22.27,15.62-36.83,13.12-2.88-.49-5.69-1.57-8.46-2.58-2.02-.73-2.78-2.25-.87-3.81,3.7-3.02,7.34-6.26,11.45-8.62,4.7-2.7,10.02-2.8,15.21-1.02,6.3,2.16,12.57,4.38,19.5,2.91Z"/>
    </clipPath>
    <clipPath id="clippath-7">
      <path class="cls-31" d="m451.43,275.74c-1.69,6.41.62,12.14,3.47,17.48,5.79,10.84,1.47,17.85-6.52,25.8-1.82,1.81-2.97,1.29-4.26-.77-3.84-6.09-5.18-12.72-3.1-19.47,2.46-7.99,5.82-15.7,8.79-23.53.54.16,1.08.32,1.62.49Z"/>
    </clipPath>
    <clipPath id="clippath-8">
      <path class="cls-31" d="m498.72,314.49c-6.92,4.79-13.63,9.92-20.82,14.27-6.39,3.86-13.48,3.4-20.57,1.48-3.33-.9-3.26-2.39-1.67-4.84,6.43-9.96,13.18-12.89,25.28-10.63,5.82,1.09,11.51,1.3,17.02-1.38.25.36.51.73.76,1.09Z"/>
    </clipPath>
    <clipPath id="clippath-9">
      <path class="cls-31" d="m510.17,286.19c-3.55,4.16-7.56,9.39-12.13,14.08-5.65,5.79-12.72,8.12-20.88,7-3.55-.49-4.18-2.05-2.72-5.19,5-10.79,9.29-13.26,20.98-13.41,5.11-.07,10.2-1.68,14.75-2.49Z"/>
    </clipPath>
    <clipPath id="clippath-10">
      <path class="cls-31" d="m461.39,253.73c0,6.73,1.57,13.02,5.68,18.23,6.83,8.65,5.35,16.92-.17,25.33-2.1,3.2-3.15,3.25-5.64.17-4-4.96-6.14-10.7-5.17-16.95,1.4-8.98,3.5-17.85,5.3-26.77Z"/>
    </clipPath>
    <clipPath id="clippath-11">
      <path class="cls-31" d="m487.97,282.25c-1.43-9.69,4.21-17.9,13.2-19.5,6.12-1.09,12.45-1.77,16.51-7.7-2.88,5.66-5.35,11.57-8.74,16.91-4.78,7.51-11.7,11.5-20.96,10.29Z"/>
    </clipPath>
    <clipPath id="clippath-12">
      <path class="cls-31" d="m469.04,231.81c-.56,5.38,1.97,9.67,4.62,13.87,1.12,1.78,2.58,3.36,3.91,5.02,6.6,8.24,6.7,16.44.08,25.37-5.54-3.98-9-9.36-9.89-15.96-.61-4.55-.03-9.26.09-13.89.09-3.22.24-6.45.47-9.66.11-1.59.46-3.16.71-4.74Z"/>
    </clipPath>
    <clipPath id="clippath-13">
      <path class="cls-31" d="m519.18,229.42c-2.6,6.35-5.22,13.44-8.4,20.27-2.2,4.73-6.95,6.37-11.71,7.53-2.51.61-3.69-.59-3.77-3.12-.28-8.94,3.85-14.41,12.07-17.59,4.25-1.65,7.95-4.71,11.81-7.08Z"/>
    </clipPath>
    <clipPath id="clippath-14">
      <path class="cls-31" d="m473.4,218.91c3.33,3.72,6.73,7.98,10.62,11.76,6.74,6.55,4.69,14.1,3.3,21.73-9.55-1.47-15.38-16.05-13.92-33.48Z"/>
    </clipPath>
    <clipPath id="clippath-15">
      <path class="cls-31" d="m515.73,199.73c-1.19,6.32-2.18,12.92-3.75,19.38-1.05,4.33-4.35,7.13-8.32,9.06-2.6,1.26-4,.29-4.5-2.39-1.67-8.91.59-13.63,8.06-18.5,3.09-2.01,5.61-4.92,8.51-7.54Z"/>
    </clipPath>
    <clipPath id="clippath-16">
      <path class="cls-31" d="m474.6,195.58c3.51,3.07,6.92,6.39,10.68,9.25,7.17,5.45,6.26,13.16,6.64,20.7-9.63-.95-15.14-10.52-17.31-29.95Z"/>
    </clipPath>
    <clipPath id="clippath-17">
      <path class="cls-31" d="m473.7,177.28c15.79,10.92,17.15,12.86,18.06,26.49-2.89-1.4-5.51-2.12-7.42-3.69-6.87-5.67-8.22-14.04-10.64-22.79Z"/>
    </clipPath>
    <clipPath id="clippath-18">
      <path class="cls-31" d="m504.74,156.15c-.33,6.58-.16,12.47-1.15,18.17-.41,2.35-2.91,5.1-5.17,6.18-2.87,1.38-3.67,2.96-3.56,5.79.09,2.24-.19,4.49-1.02,6.77-.18-4.25-.67-8.52-.44-12.75.24-4.4.28-9.17,2.05-13.02,1.78-3.89,5.58-6.85,9.29-11.14Z"/>
    </clipPath>
    <clipPath id="clippath-19">
      <path class="cls-31" d="m484.07,136.22c6.65,8.21,8.28,15.79,6.97,32.78-7.94-9.33-10.75-20.66-6.97-32.78Z"/>
    </clipPath>
    <clipPath id="clippath-20">
      <path class="cls-31" d="m473.16,158.14c5.06,3.96,10.53,7.19,14.46,11.75,2.08,2.41,1.48,7.12,2.1,10.88-7.65-.38-15.51-11.85-16.56-22.63Z"/>
    </clipPath>
  </defs>
  <g>
    <path class="cls-5" d="m209.77,139.19c0,2.49.1,4.19.31,5.12.21.92.64,1.69,1.29,2.3.65.61,1.83,1.13,3.54,1.55v3.2h-25.32v-3.2c1.87-.49,3.09-.97,3.64-1.46.55-.48.94-1.17,1.16-2.06.23-.89.34-2.71.34-5.46v-19.45h-21.92v19.45c0,1.13.03,2.18.1,3.15.06.97.19,1.76.39,2.38.19.61.48,1.13.85,1.55.37.42.88.78,1.53,1.09.65.31,1.44.57,2.38.8v3.2h-25.46v-3.2c1.2-.32,2.14-.67,2.84-1.04.7-.37,1.21-.89,1.55-1.55.34-.66.56-1.5.65-2.52.1-1.02.15-2.3.15-3.86v-41.81c0-1.52-.04-2.8-.12-3.83-.08-1.03-.29-1.87-.63-2.52-.34-.65-.86-1.17-1.55-1.58-.7-.4-1.66-.77-2.89-1.09v-3.2h25.46v3.2c-1.71.48-2.89,1.02-3.52,1.6s-1.08,1.35-1.33,2.3c-.26.95-.39,2.68-.39,5.17v16.2h21.92v-16.2c0-2.46-.1-4.16-.31-5.12-.21-.95-.63-1.73-1.26-2.33-.63-.6-1.82-1.14-3.56-1.62v-3.2h25.32v3.2c-1.42.39-2.46.8-3.1,1.24-.65.44-1.11.99-1.38,1.67-.27.68-.45,1.44-.53,2.28-.08.84-.12,2.13-.12,3.88v41.76Z"/>
    <path class="cls-5" d="m267.68,142.54c-3.3,3.49-6.56,5.97-9.8,7.42-3.23,1.45-6.95,2.18-11.15,2.18-7.53,0-13.2-2.06-17-6.18-3.8-4.12-5.7-10.24-5.7-18.36,0-5.24.98-9.75,2.93-13.55,1.96-3.8,4.73-6.68,8.32-8.63,3.59-1.96,7.76-2.93,12.51-2.93,2.94,0,5.52.34,7.74,1.02,2.21.68,4.11,1.62,5.7,2.84,1.58,1.21,2.89,2.68,3.93,4.39,1.23,2.04,2.15,4.37,2.76,6.98.65,2.68.99,5.93,1.02,9.75h-30.75c.03,5.85,1.07,10.16,3.13,12.92,2.05,2.76,5.18,4.15,9.38,4.15,2.46,0,4.67-.46,6.64-1.38,1.97-.92,4.11-2.55,6.4-4.87l3.93,4.27Zm-13.09-20.32c-.13-4.95-.78-8.63-1.94-11.06-1.16-2.42-3.04-3.64-5.63-3.64s-4.47,1.26-5.94,3.78c-1.47,2.52-2.35,6.16-2.64,10.91h16.15Z"/>
    <path class="cls-5" d="m299.25,153.55c-2.1,4.69-4.08,8.37-5.94,11.03-1.86,2.67-3.86,4.66-6.01,5.99-2.15,1.33-4.83,1.99-8.03,1.99-2.43,0-4.69-.31-6.79-.92v-11.11h5.43c.42,1.52.95,2.56,1.58,3.13.63.57,1.51.85,2.64.85,1.23,0,2.34-.34,3.32-1.02.99-.68,2.1-1.95,3.35-3.81,1.24-1.86,2.77-4.63,4.58-8.32h-2.76l-12.66-36.42c-.91-2.55-1.62-4.31-2.16-5.26-.53-.95-1.13-1.68-1.79-2.18-.66-.5-1.48-.85-2.45-1.04v-3.2h24.2v3.2c-1.52.29-2.64.73-3.35,1.31-.71.58-1.07,1.46-1.07,2.62,0,1.55.42,3.57,1.26,6.06l6.98,21.19,7.71-18.57c.65-1.55,1.13-2.92,1.45-4.1.32-1.18.49-2.34.49-3.47,0-1.36-.39-2.48-1.16-3.37-.78-.89-1.88-1.45-3.3-1.67v-3.2h18.87v3.25c-.94.29-1.69.65-2.26,1.07-.57.42-1.1.97-1.6,1.65-.5.68-1.11,1.69-1.82,3.03-.71,1.34-1.68,3.37-2.91,6.09l-15.81,35.21Z"/>
    <path class="cls-5" d="m371.56,137.2c0,2.46.04,4.25.12,5.38.08,1.13.27,2.04.56,2.72s.76,1.24,1.41,1.67c.65.44,1.73.82,3.25,1.14v3.25l-13.19.44h-5.87l.44-6.98-.73-.05c-2.33,2.36-4.78,4.18-7.35,5.46-2.57,1.28-5.04,1.92-7.4,1.92-5.89,0-10.29-2.02-13.22-6.06-2.93-4.04-4.39-10.12-4.39-18.24,0-5.5.89-10.13,2.67-13.89,1.78-3.77,4.42-6.62,7.93-8.56,3.51-1.94,7.74-2.91,12.68-2.91,1.42,0,2.82.09,4.2.27,1.37.18,3,.53,4.87,1.04v-4.41c0-3.46-.05-5.91-.15-7.35-.1-1.44-.3-2.54-.61-3.3-.31-.76-.77-1.35-1.38-1.77-.61-.42-1.73-.79-3.35-1.12v-3.25l13.43-.68h6.06v55.29Zm-14.02-18.04c0-3.94-.66-6.87-1.99-8.78-1.33-1.91-3.36-2.86-6.11-2.86-2.01,0-3.73.72-5.17,2.16-1.44,1.44-2.52,3.52-3.25,6.23s-1.09,5.93-1.09,9.65c0,6.37.7,11.12,2.09,14.26,1.39,3.14,3.56,4.7,6.5,4.7,1.39,0,2.77-.35,4.15-1.04,1.37-.7,2.53-1.76,3.47-3.2.94-1.44,1.41-3.1,1.41-4.97v-16.15Z"/>
    <path class="cls-5" d="m403.57,107.52c-2.42,0-4.54.63-6.35,1.89-1.81,1.26-3.2,3.22-4.17,5.87h-6.5v-9.6c1.16-.32,2.5-.67,4.03-1.04,1.52-.37,3.14-.72,4.85-1.04,1.71-.32,3.47-.59,5.26-.8,1.79-.21,3.53-.31,5.21-.31,7.66,0,13.4,2.08,17.22,6.23,3.81,4.16,5.72,10.21,5.72,18.16,0,3.75-.56,7.18-1.67,10.28-1.12,3.1-2.7,5.76-4.75,7.98-2.05,2.21-4.51,3.94-7.37,5.17s-6.04,1.84-9.53,1.84c-4.01,0-7.39-.61-10.14-1.84-2.75-1.23-4.97-2.9-6.67-5.02-1.7-2.12-2.93-4.58-3.69-7.4-.76-2.81-1.14-5.82-1.14-9.02,0-.52.02-1.1.05-1.75h30.8c-.03-2.33-.21-4.66-.53-7.01-.32-2.34-.91-4.45-1.75-6.3s-1.97-3.37-3.39-4.54c-1.42-1.16-3.25-1.75-5.48-1.75Zm2.57,39.58c1.52,0,2.8-.43,3.83-1.29,1.03-.86,1.87-1.99,2.5-3.39s1.11-2.98,1.43-4.73c.32-1.75.55-3.52.68-5.33h-16.39c.03,5.01.73,8.72,2.09,11.13,1.36,2.41,3.31,3.61,5.87,3.61Z"/>
    <path class="cls-5" d="m455.51,110.19l.63.15c2.36-2.78,4.78-4.79,7.27-6.01,2.49-1.23,5.19-1.84,8.1-1.84,1.97,0,4.04.21,6.21.63v13.39h-8.78c-.55-1.88-1.27-3.31-2.16-4.32-.89-1-2.08-1.5-3.56-1.5-.71,0-1.5.22-2.35.65-.86.44-1.65,1.05-2.38,1.84-.73.79-1.25,1.6-1.55,2.42-.31.82-.51,1.66-.61,2.5s-.15,2.1-.15,3.78v15.47c0,3.07.11,5.22.34,6.45.23,1.23.68,2.19,1.36,2.88.68.7,1.83,1.19,3.44,1.48v3.2h-23.91v-3.2c1.55-.42,2.63-.97,3.23-1.65.6-.68,1-1.6,1.21-2.76.21-1.16.32-3.28.32-6.35v-19.93c0-2.39-.04-4.16-.12-5.31-.08-1.15-.27-2.07-.58-2.76-.31-.69-.78-1.26-1.41-1.7s-1.72-.82-3.27-1.14v-3.3l13.29-.39h6.11l-.68,7.32Z"/>
    <path class="cls-5" d="m180.31,209.21c-2.2,0-4.1.22-5.7.65-1.6.44-2.98,1.1-4.14,1.99s-2.14,2-2.93,3.32c-.79,1.33-1.46,2.88-2.01,4.65h-7.71v-13.72c8.66-1.71,16.33-2.57,23.02-2.57,5.36,0,9.99.68,13.89,2.04,3.89,1.36,7.11,3.41,9.65,6.16,2.54,2.75,4.41,6.2,5.62,10.35,1.21,4.15,1.82,9.01,1.82,14.56,0,6.08-.72,11.29-2.16,15.66-1.44,4.36-3.48,7.95-6.13,10.76-2.65,2.81-5.82,4.88-9.52,6.2-3.7,1.33-7.83,1.99-12.38,1.99-19.03,0-28.55-11.1-28.55-33.3v-.56c0-.24,0-.49.02-.73.02-.24.03-.47.05-.68.02-.21.02-.36.02-.46h43.18c-.16-8.89-1.6-15.49-4.31-19.82-2.71-4.33-6.62-6.49-11.73-6.49Zm2.42,56.37c2.52,0,4.64-.66,6.37-1.99,1.73-1.33,3.13-3.2,4.19-5.62.9-2,1.59-4.28,2.06-6.83.47-2.55.78-5.7.94-9.45h-27.92c.32,8.21,1.69,14.24,4.1,18.1,2.41,3.86,5.82,5.79,10.25,5.79Z"/>
    <path class="cls-5" d="m239.25,256.47c0,3.07.1,5.19.29,6.35.19,1.16.59,2.09,1.19,2.79.6.7,1.72,1.25,3.37,1.67v3.2h-23.75v-3.2c.97-.23,1.73-.49,2.28-.8.55-.31.98-.66,1.28-1.07.31-.4.57-.92.8-1.55.23-.63.37-1.5.44-2.62.06-1.12.1-2.71.1-4.77v-37.8c0-2.78-.02-4.82-.07-6.13-.05-1.31-.15-2.41-.29-3.29s-.39-1.6-.73-2.13-.82-.96-1.43-1.28c-.61-.32-1.6-.61-2.96-.87v-3.2l13.43-.68h6.06v55.4Z"/>
    <path class="cls-5" d="m251.66,267.27c1.58-.42,2.67-.97,3.27-1.65.6-.68,1-1.6,1.21-2.76.21-1.16.31-3.28.31-6.35v-22.54c0-1.58-.07-2.86-.22-3.83s-.42-1.75-.82-2.33c-.4-.58-.95-1.03-1.65-1.33-.7-.31-1.59-.57-2.69-.8v-3.3l13.33-.39h6.06v34.46c0,1.81.02,3.21.07,4.19.05.99.12,1.75.22,2.28.1.53.23,1.01.41,1.43.18.42.41.81.7,1.16.29.36.71.68,1.26.97.55.29,1.28.55,2.18.78v3.2h-23.65v-3.2Zm18.42-64.22v11.87h-13.28v-11.87h13.28Z"/>
    <path class="cls-5" d="m304.73,272.65c-2.1,4.68-4.08,8.36-5.94,11.03-1.86,2.67-3.86,4.66-6.01,5.99-2.15,1.33-4.82,1.99-8.02,1.99-2.42,0-4.69-.31-6.79-.92v-11.1h5.43c.42,1.52.95,2.56,1.58,3.13s1.51.85,2.64.85c1.23,0,2.33-.34,3.32-1.02.99-.68,2.1-1.95,3.34-3.8,1.24-1.86,2.77-4.63,4.58-8.31h-2.76l-12.65-36.4c-.9-2.55-1.62-4.31-2.16-5.26-.53-.95-1.13-1.68-1.79-2.18-.66-.5-1.48-.85-2.45-1.04v-3.2h24.19v3.2c-1.52.29-2.63.73-3.34,1.31-.71.58-1.07,1.45-1.07,2.62,0,1.55.42,3.57,1.26,6.06l6.98,21.18,7.71-18.56c.65-1.55,1.13-2.92,1.45-4.1.32-1.18.48-2.33.48-3.47,0-1.36-.39-2.48-1.16-3.37-.78-.89-1.87-1.45-3.3-1.67v-3.2h18.85v3.25c-.94.29-1.69.65-2.25,1.07-.57.42-1.1.97-1.6,1.65-.5.68-1.11,1.69-1.82,3.03-.71,1.34-1.68,3.37-2.91,6.08l-15.8,35.19Z"/>
    <path class="cls-5" d="m374.03,261.65c-3.3,3.49-6.56,5.96-9.79,7.42-3.23,1.45-6.95,2.18-11.15,2.18-7.53,0-13.19-2.06-16.99-6.18-3.8-4.12-5.69-10.23-5.69-18.34,0-5.23.98-9.75,2.93-13.55,1.95-3.8,4.73-6.67,8.31-8.63s7.75-2.93,12.5-2.93c2.94,0,5.52.34,7.73,1.02,2.21.68,4.11,1.62,5.69,2.84,1.58,1.21,2.89,2.67,3.93,4.39,1.23,2.04,2.15,4.36,2.76,6.98.65,2.68.98,5.93,1.02,9.74h-30.73c.03,5.85,1.07,10.15,3.13,12.92,2.05,2.76,5.18,4.14,9.38,4.14,2.46,0,4.67-.46,6.64-1.38,1.97-.92,4.1-2.54,6.4-4.87l3.93,4.26Zm-13.09-20.31c-.13-4.94-.78-8.63-1.94-11.05-1.16-2.42-3.04-3.63-5.62-3.63s-4.47,1.26-5.94,3.78c-1.47,2.52-2.35,6.16-2.64,10.9h16.14Z"/>
    <path class="cls-5" d="m402.1,222.39v3.2c-1.52.29-2.63.73-3.34,1.31-.71.58-1.07,1.45-1.07,2.62,0,1.55.42,3.57,1.26,6.06l6.98,21.18,7.71-18.56c.65-1.55,1.13-2.92,1.45-4.1.32-1.18.48-2.33.48-3.47,0-1.36-.39-2.48-1.16-3.37-.78-.89-1.87-1.45-3.3-1.67v-3.2h18.85v3.25c-.94.29-1.69.65-2.25,1.07-.57.42-1.1.97-1.6,1.65-.5.68-1.11,1.69-1.82,3.03-.71,1.34-1.68,3.37-2.91,6.08l-15.12,33.49h-9.16l-12.8-36.88c-.87-2.55-1.58-4.31-2.13-5.26-.55-.95-1.16-1.68-1.82-2.18-.66-.5-1.48-.85-2.45-1.04v-3.2h24.19Z"/>
  </g>
  <g>
    <g class="cls-29">
      <polygon class="cls-8" points="147.97 374.66 152.45 382.58 147.97 382.58 147.97 374.66"/>
      <polygon class="cls-8" points="147.97 344.17 169.69 382.58 152.45 382.58 147.97 374.66 147.97 344.17"/>
      <polygon class="cls-22" points="147.97 313.69 178.73 368.07 178.73 382.58 169.69 382.58 147.97 344.17 147.97 313.69"/>
      <polygon class="cls-7" points="147.97 307.93 158.56 301.94 178.73 337.59 178.73 368.07 147.97 313.69 147.97 307.93"/>
      <polygon class="cls-16" points="158.56 301.94 166.36 297.53 173.32 297.53 178.73 307.1 178.73 337.59 158.56 301.94"/>
      <polygon class="cls-1" points="178.73 307.1 173.32 297.53 178.73 297.53 178.73 307.1"/>
    </g>
    <g class="cls-17">
      <polygon class="cls-22" points="186.73 382.21 188.21 384.83 186.73 384.83 186.73 382.21"/>
      <polygon class="cls-7" points="186.73 351.72 205.46 384.83 188.21 384.83 186.73 382.21 186.73 351.72"/>
      <polygon class="cls-16" points="186.73 321.24 222.7 384.83 205.46 384.83 186.73 351.72 186.73 321.24"/>
      <polygon class="cls-1" points="186.73 318.84 198.76 312.03 239.95 384.83 222.7 384.83 186.73 321.24 186.73 318.84"/>
      <polygon class="cls-36" points="198.76 312.03 206.15 307.85 213.64 307.85 257.19 384.83 239.95 384.83 198.76 312.03"/>
      <polygon class="cls-19" points="230.89 307.85 274.44 384.83 257.19 384.83 213.64 307.85 230.89 307.85"/>
      <polygon class="cls-13" points="248.13 307.85 291.68 384.83 274.44 384.83 230.89 307.85 248.13 307.85"/>
      <polygon class="cls-27" points="265.38 307.85 308.93 384.83 291.68 384.83 248.13 307.85 265.38 307.85"/>
      <polygon class="cls-25" points="282.62 307.85 324.65 382.14 319.89 384.83 308.93 384.83 265.38 307.85 282.62 307.85"/>
      <polygon class="cls-37" points="299.87 307.85 337.71 374.75 324.65 382.14 282.62 307.85 299.87 307.85"/>
      <polygon class="cls-26" points="317.11 307.85 342.46 352.66 342.46 372.06 337.71 374.75 299.87 307.85 317.11 307.85"/>
      <polygon class="cls-45" points="334.36 307.85 342.46 322.17 342.46 352.66 317.11 307.85 334.36 307.85"/>
      <polygon class="cls-35" points="342.46 322.17 334.36 307.85 342.46 307.85 342.46 322.17"/>
    </g>
    <g>
      <g class="cls-9">
        <polygon class="cls-26" points="340.24 348.72 356.36 377.21 340.24 377.21 340.24 348.72"/>
        <polygon class="cls-45" points="340.24 318.23 373.6 377.21 356.36 377.21 340.24 348.72 340.24 318.23"/>
        <polygon class="cls-35" points="340.24 287.75 387.44 371.19 376.8 377.21 373.6 377.21 340.24 318.23 340.24 287.75"/>
        <polygon class="cls-24" points="340.24 272.19 346.63 268.57 400.5 363.8 387.44 371.19 340.24 287.75 340.24 272.19"/>
        <rect class="cls-44" x="372.59" y="257.78" width="15.01" height="109.42" transform="translate(-104.6 227.66) rotate(-29.5)"/>
        <rect class="cls-23" x="385.66" y="250.39" width="15.01" height="109.42" transform="translate(-99.26 233.14) rotate(-29.5)"/>
        <rect class="cls-20" x="398.72" y="243" width="15.01" height="109.42" transform="translate(-93.93 238.61) rotate(-29.5)"/>
        <rect class="cls-47" x="411.79" y="235.61" width="15.01" height="109.42" transform="translate(-88.6 244.08) rotate(-29.5)"/>
        <rect class="cls-34" x="424.85" y="228.22" width="15.01" height="109.42" transform="translate(-83.27 249.56) rotate(-29.5)"/>
        <rect class="cls-6" x="437.91" y="220.83" width="15.01" height="109.42" transform="translate(-77.93 255.03) rotate(-29.5)"/>
        <rect class="cls-30" x="450.98" y="213.44" width="15.01" height="109.42" transform="translate(-72.6 260.51) rotate(-29.5)"/>
        <rect class="cls-48" x="464.04" y="206.05" width="15.01" height="109.42" transform="translate(-67.27 265.98) rotate(-29.5)"/>
        <polygon class="cls-14" points="451.14 209.45 464.21 202.06 510.8 284.42 510.8 301.41 505.02 304.68 451.14 209.45"/>
        <polygon class="cls-49" points="464.21 202.06 477.27 194.66 510.8 253.94 510.8 284.42 464.21 202.06"/>
        <polygon class="cls-39" points="477.27 194.66 490.33 187.27 510.8 223.45 510.8 253.94 477.27 194.66"/>
        <polygon class="cls-39" points="490.33 187.27 506.28 178.26 510.8 178.26 510.8 223.45 490.33 187.27"/>
      </g>
      <g class="cls-33">
        <polygon class="cls-24" points="389.87 345.01 396.93 357.48 395.45 358.32 389.87 358.32 389.87 345.01"/>
        <polygon class="cls-44" points="389.87 320.97 392.64 319.41 409.99 350.09 396.93 357.48 389.87 345.01 389.87 320.97"/>
        <polygon class="cls-23" points="392.64 319.41 405.7 312.02 422.26 341.29 422.26 343.15 409.99 350.09 392.64 319.41"/>
        <polygon class="cls-20" points="405.7 312.02 418.05 305.03 418.99 305.03 422.26 310.81 422.26 341.29 405.7 312.02"/>
        <polygon class="cls-47" points="422.26 310.81 418.99 305.03 422.26 305.03 422.26 310.81"/>
      </g>
      <g class="cls-18">
        <polygon class="cls-24" points="396.74 362 398.82 360.83 406.52 374.43 396.74 374.43 396.74 362"/>
        <polygon class="cls-44" points="398.82 360.83 411.88 353.44 423.76 374.43 406.52 374.43 398.82 360.83"/>
        <polygon class="cls-23" points="411.88 353.44 412.19 353.26 429.03 353.26 440.92 374.28 440.65 374.43 423.76 374.43 411.88 353.44"/>
        <polygon class="cls-20" points="446.28 353.26 453.09 365.31 453.09 367.39 440.92 374.28 429.03 353.26 446.28 353.26"/>
        <polygon class="cls-47" points="453.09 365.31 446.28 353.26 453.09 353.26 453.09 365.31"/>
      </g>
      <g class="cls-43">
        <polygon class="cls-23" points="417.18 332.31 422.2 341.18 417.18 341.18 417.18 332.31"/>
        <polygon class="cls-20" points="417.18 305.83 418.89 304.86 436.19 335.43 426.01 341.18 422.2 341.18 417.18 332.31 417.18 305.83"/>
        <polygon class="cls-47" points="418.89 304.86 431.21 297.89 432.2 297.89 438.18 308.47 438.18 334.3 436.19 335.43 418.89 304.86"/>
        <polygon class="cls-34" points="438.18 308.47 432.2 297.89 438.18 297.89 438.18 308.47"/>
      </g>
      <g class="cls-12">
        <polygon class="cls-23" points="428.04 351.51 430.83 356.45 428.04 356.45 428.04 351.51"/>
        <polygon class="cls-20" points="428.04 344.16 437.95 338.55 448.08 356.45 430.83 356.45 428.04 351.51 428.04 344.16"/>
        <polygon class="cls-47" points="437.95 338.55 442.21 336.14 453.83 336.14 463.52 353.27 457.9 356.45 448.08 356.45 437.95 338.55"/>
        <polygon class="cls-34" points="471.08 336.14 476.1 345.02 476.1 346.15 463.52 353.27 453.83 336.14 471.08 336.14"/>
        <polygon class="cls-6" points="476.1 345.02 471.08 336.14 476.1 336.14 476.1 345.02"/>
      </g>
      <g class="cls-15">
        <polygon class="cls-47" points="438.93 309.8 445.17 320.83 438.93 320.83 438.93 309.8"/>
        <polygon class="cls-34" points="438.93 279.32 459.56 315.78 450.62 320.83 445.17 320.83 438.93 309.8 438.93 279.32"/>
        <polygon class="cls-6" points="438.93 279.11 445.74 275.25 453.88 275.25 460.7 287.3 460.7 315.13 459.56 315.78 438.93 279.32 438.93 279.11"/>
        <polygon class="cls-30" points="460.7 287.3 453.88 275.25 460.7 275.25 460.7 287.3"/>
      </g>
      <g class="cls-38">
        <polygon class="cls-34" points="454 317.72 459.05 314.87 469.08 332.61 454 332.61 454 317.72"/>
        <polygon class="cls-6" points="459.05 314.87 463.22 312.51 474.96 312.51 483.72 328.01 475.58 332.61 469.08 332.61 459.05 314.87"/>
        <polygon class="cls-30" points="492.2 312.51 496.79 320.61 483.72 328.01 474.96 312.51 492.2 312.51"/>
        <polygon class="cls-48" points="498.72 319.52 496.79 320.61 492.2 312.51 498.72 312.51 498.72 319.52"/>
      </g>
      <g class="cls-28">
        <polygon class="cls-30" points="472.99 292.62 479.02 289.2 489.87 308.4 472.99 308.4 472.99 292.62"/>
        <polygon class="cls-48" points="479.02 289.2 484.34 286.19 494.56 286.19 503.53 302.06 492.33 308.4 489.87 308.4 479.02 289.2"/>
        <polygon class="cls-14" points="510.17 298.3 503.53 302.06 494.56 286.19 510.17 286.19 510.17 298.3"/>
      </g>
      <g class="cls-46">
        <polygon class="cls-6" points="455.12 277.45 468.19 300.54 455.12 300.54 455.12 277.45"/>
        <polygon class="cls-30" points="455.12 254.98 457.33 253.73 458.95 253.73 473.9 280.15 473.9 297.64 468.76 300.54 468.19 300.54 455.12 277.45 455.12 254.98"/>
        <polygon class="cls-48" points="473.9 280.15 458.95 253.73 473.9 253.73 473.9 280.15"/>
      </g>
      <g class="cls-3">
        <polygon class="cls-48" points="486.53 272.01 493.01 283.46 486.53 283.46 486.53 272.01"/>
        <polygon class="cls-14" points="486.53 265.25 496.7 259.5 508.08 279.62 501.3 283.46 493.01 283.46 486.53 272.01 486.53 265.25"/>
        <polygon class="cls-49" points="496.7 259.5 504.57 255.05 511.43 255.05 517.67 266.09 517.67 274.19 508.08 279.62 496.7 259.5"/>
        <polygon class="cls-39" points="517.67 266.09 511.43 255.05 517.67 255.05 517.67 266.09"/>
      </g>
      <g class="cls-21">
        <polygon class="cls-30" points="467.16 268.24 471.58 276.06 467.16 276.06 467.16 268.24"/>
        <polygon class="cls-48" points="467.16 237.76 484.28 268.02 484.28 274.62 481.72 276.06 471.58 276.06 467.16 268.24 467.16 237.76"/>
        <polygon class="cls-14" points="481.04 231.81 484.28 237.53 484.28 268.02 467.16 237.76 467.16 231.81 481.04 231.81"/>
        <polygon class="cls-49" points="484.28 237.53 481.04 231.81 484.28 231.81 484.28 237.53"/>
      </g>
      <g class="cls-10">
        <polygon class="cls-14" points="495.02 256.52 495.76 257.83 495.02 257.83 495.02 256.52"/>
        <polygon class="cls-49" points="495.02 239.73 500.89 236.41 511.45 255.09 506.61 257.83 495.76 257.83 495.02 256.52 495.02 239.73"/>
        <polygon class="cls-39" points="500.89 236.41 513.24 229.42 514.17 229.42 519.18 238.26 519.18 250.72 511.45 255.09 500.89 236.41"/>
        <polygon class="cls-39" points="519.18 238.26 514.17 229.42 519.18 229.42 519.18 238.26"/>
      </g>
      <g class="cls-41">
        <polygon class="cls-48" points="471.94 246.21 475.44 252.39 471.94 252.39 471.94 246.21"/>
        <polygon class="cls-14" points="473.74 218.91 490.76 249 490.76 252.39 475.44 252.39 471.94 246.21 471.94 218.91 473.74 218.91"/>
        <polygon class="cls-49" points="490.76 249 473.74 218.91 490.76 218.91 490.76 249"/>
      </g>
      <g class="cls-11">
        <polygon class="cls-39" points="497.48 207.75 500.84 205.85 512.21 225.94 506.04 229.42 497.48 229.42 497.48 207.75"/>
        <polygon class="cls-39" points="500.84 205.85 511.66 199.73 515.73 199.73 515.73 223.95 512.21 225.94 500.84 205.85"/>
      </g>
      <g class="cls-4">
        <polygon class="cls-14" points="474.6 220.42 477.49 225.53 474.6 225.53 474.6 220.42"/>
        <polygon class="cls-49" points="477.79 195.58 492.44 221.48 492.44 225.53 477.49 225.53 474.6 220.42 474.6 195.58 477.79 195.58"/>
        <polygon class="cls-39" points="492.44 221.48 477.79 195.58 492.44 195.58 492.44 221.48"/>
      </g>
      <g class="cls-42">
        <polygon class="cls-49" points="473.7 188.35 482.42 203.77 473.7 203.77 473.7 188.35"/>
        <polygon class="cls-39" points="484.68 177.28 491.76 189.79 491.76 203.77 482.42 203.77 473.7 188.35 473.7 177.28 484.68 177.28"/>
        <polygon class="cls-39" points="491.76 189.79 484.68 177.28 491.76 177.28 491.76 189.79"/>
      </g>
      <g class="cls-40">
        <polygon class="cls-39" points="493.19 192.32 493.61 193.06 493.19 193.06 493.19 192.32"/>
        <polygon class="cls-39" points="493.19 160.39 500.68 156.15 504.74 156.15 504.74 189.2 497.92 193.06 493.61 193.06 493.19 192.32 493.19 160.39"/>
      </g>
      <g class="cls-32">
        <rect class="cls-39" x="480.29" y="136.22" width="12.06" height="32.78"/>
      </g>
      <g class="cls-2">
        <polygon class="cls-39" points="473.85 158.14 486.66 180.77 473.16 180.77 473.16 158.14 473.85 158.14"/>
        <polygon class="cls-39" points="486.66 180.77 473.85 158.14 489.72 158.14 489.72 180.77 486.66 180.77"/>
      </g>
    </g>
  </g>
</svg>